<svg id="레이어_1" data-name="레이어 1" xmlns="http://www.w3.org/2000/svg" viewBox="0 0 53.62 58.48"><defs><style>.cls-1{fill:#464849;}</style></defs><title>icn_a11 사본</title><polygon class="cls-1" points="23.94 36.77 20.62 47.35 24 47.35 21.44 55.88 31.13 44.02 27.81 44.02 31.61 36.77 23.94 36.77"/><path class="cls-1" d="M51.81,19.61A11,11,0,0,0,40.65,9H13A11,11,0,0,0,1.81,19.75,11.29,11.29,0,0,0,4,26.33,10.73,10.73,0,0,0,9.32,43a10.85,10.85,0,0,0,3,.42A10.39,10.39,0,0,0,19,41a2.41,2.41,0,0,0-3.09-3.7,5.61,5.61,0,0,1-5.27,1.09,5.89,5.89,0,0,1-4-5.87,5.38,5.38,0,0,1,1-3,9,9,0,0,0,1.7.7,10.46,10.46,0,0,0,10.27-2.58,10.21,10.21,0,0,0,14.44,0A10.48,10.48,0,0,0,44.3,30.19a9,9,0,0,0,1.7-.7,5.5,5.5,0,0,1,1,3.08,5.94,5.94,0,0,1-4,5.79,5.65,5.65,0,0,1-5.27-1.09A2.41,2.41,0,0,0,34.64,41a10.37,10.37,0,0,0,6.7,2.45,10.46,10.46,0,0,0,10.47-11,10.36,10.36,0,0,0-2.14-6.09A11.51,11.51,0,0,0,51.81,19.61Zm-7,4.91a4.89,4.89,0,0,1-1.85,1A5.63,5.63,0,0,1,36.49,23a2.42,2.42,0,0,0-2.07-1.17h-.78A2.41,2.41,0,0,0,31.57,23a5.46,5.46,0,0,1-9.52,0A2.4,2.4,0,0,0,20,21.82H19.2A2.41,2.41,0,0,0,17.13,23a5.64,5.64,0,0,1-6.51,2.56,5,5,0,0,1-1.86-1,6.38,6.38,0,0,1-2.13-4.85A6.17,6.17,0,0,1,13,13.82H40.65A6.18,6.18,0,0,1,47,19.75,6.3,6.3,0,0,1,44.85,24.52Z"/></svg>