<svg id="레이어_1" data-name="레이어 1" xmlns="http://www.w3.org/2000/svg" viewBox="0 0 53.62 58.48"><defs><style>.cls-1{fill:#fff;}</style></defs><title>icn_a01</title><path class="cls-1" d="M26.87,41.67A12.24,12.24,0,1,1,39.11,29.43,12.26,12.26,0,0,1,26.87,41.67Zm0-18.7a6.46,6.46,0,1,0,6.46,6.46A6.47,6.47,0,0,0,26.87,23Z"/><rect class="cls-1" x="24.11" y="3.43" width="5.78" height="8"/><rect class="cls-1" x="24.11" y="47.43" width="5.78" height="8"/><rect class="cls-1" x="45" y="26.54" width="8" height="5.78"/><rect class="cls-1" x="1" y="26.54" width="8" height="5.78"/><rect class="cls-1" x="38.56" y="10.99" width="8" height="5.78" transform="translate(2.65 34.16) rotate(-45)"/><rect class="cls-1" x="7.45" y="42.1" width="8" height="5.78" transform="translate(-28.46 21.27) rotate(-45)"/><rect class="cls-1" x="39.67" y="40.98" width="5.78" height="8" transform="translate(-19.35 43.27) rotate(-45)"/><rect class="cls-1" x="8.56" y="9.87" width="5.78" height="8" transform="translate(-6.46 12.16) rotate(-45)"/></svg>