<svg id="레이어_1" data-name="레이어 1" xmlns="http://www.w3.org/2000/svg" viewBox="0 0 53.62 58.48"><defs><style>.cls-1{fill:#fff;}</style></defs><title>icn_a13</title><path class="cls-1" d="M51.31,23.26a12.23,12.23,0,0,0-8.39-8.51A14.5,14.5,0,0,0,33.76,3.44a14,14,0,0,0-10.17,0,14.49,14.49,0,0,0-9,10.82h-.42A12.33,12.33,0,0,0,1.81,26.58,12.33,12.33,0,0,0,14.12,38.9H19l1.56-5.21H14.12a7.11,7.11,0,0,1,0-14.21H19.5V16.87a9.1,9.1,0,0,1,5.94-8.55,8.74,8.74,0,0,1,6.48,0,9.06,9.06,0,0,1,6,8.35l-.25,2.59,2.59.26a7.14,7.14,0,0,1,6.08,5.16h0a6.82,6.82,0,0,1,.3,1.91,7.11,7.11,0,0,1-7.1,7.11h-7L28.26,38.9H39.5A12.33,12.33,0,0,0,51.81,26.58,12,12,0,0,0,51.31,23.26Z"/><polygon class="cls-1" points="35.26 16.13 24.17 16.13 19.37 31.45 24.26 31.45 23.74 33.19 22.18 38.4 20.56 43.79 24.96 38.4 29.21 33.19 34.58 26.63 29.77 26.63 35.26 16.13"/><circle class="cls-1" cx="12.66" cy="44.61" r="3.08"/><circle class="cls-1" cx="27.03" cy="44.61" r="3.08"/><circle class="cls-1" cx="19.84" cy="53.18" r="3.08"/><circle class="cls-1" cx="34.21" cy="53.18" r="3.08"/><circle class="cls-1" cx="41.4" cy="44.61" r="3.08"/></svg>