<svg id="레이어_1" data-name="레이어 1" xmlns="http://www.w3.org/2000/svg" viewBox="0 0 53.62 58.48"><defs><style>.cls-1{fill:#fff;}</style></defs><title>icn_a03</title><path class="cls-1" d="M46.77,19.1A11.18,11.18,0,0,0,35.8,10a11.07,11.07,0,0,0-4,.75,11.21,11.21,0,0,0-6.29,6,12.27,12.27,0,0,0-6.34.69,12.79,12.79,0,0,0-7.93,9.3h-.12a10.89,10.89,0,0,0,0,21.78H33A10.9,10.9,0,0,0,43.88,37.88,9.64,9.64,0,0,0,46.77,19.1ZM33,43.43H11.16a5.82,5.82,0,0,1,0-11.64h4.93V29.25A7.52,7.52,0,0,1,21,22.17a7.22,7.22,0,0,1,5.37,0,7.53,7.53,0,0,1,4.92,7v2.41l2.29.23a5.7,5.7,0,0,1,4.17,2.5.76.76,0,0,1,.08.11,2.25,2.25,0,0,1,.12.21,6.52,6.52,0,0,1,.61,1.4h0a5.7,5.7,0,0,1,.25,1.56A5.83,5.83,0,0,1,33,43.43ZM43.71,32.81h-1c-.07-.15-.16-.29-.24-.44s-.14-.26-.22-.38a8.92,8.92,0,0,0-.54-.82L41.6,31a9,9,0,0,0-.81-.93c-.08-.09-.16-.16-.24-.24s-.44-.41-.67-.6l-.35-.27a7.75,7.75,0,0,0-.66-.46,3.14,3.14,0,0,0-.39-.24,6.72,6.72,0,0,0-.75-.4l-.35-.17a9.68,9.68,0,0,0-1.17-.44,12.44,12.44,0,0,0-.36-1.49c0-.16-.1-.31-.15-.46-.11-.33-.23-.65-.37-1l-.24-.51c-.14-.29-.3-.59-.47-.87s-.18-.31-.28-.46c-.2-.31-.41-.61-.64-.9a4.08,4.08,0,0,0-.25-.33,13.41,13.41,0,0,0-1-1.11c-.08-.07-.18-.14-.26-.22a11,11,0,0,0-.91-.75c-.14-.11-.29-.21-.44-.31s-.32-.24-.5-.34a6.17,6.17,0,0,1,3.32-3,6,6,0,0,1,8.24,5.59v2.41l2.29.23a4.57,4.57,0,0,1-.46,9.11Z"/></svg>