<svg id="레이어_1" data-name="레이어 1" xmlns="http://www.w3.org/2000/svg" viewBox="0 0 53.62 58.48"><defs><style>.cls-1{fill:#fff;}</style></defs><title>icn_a07</title><path class="cls-1" d="M51.81,22.64A11,11,0,0,0,40.66,12H13A11,11,0,0,0,1.81,22.78,11.29,11.29,0,0,0,4,29.36,10.73,10.73,0,0,0,9.32,46a10.6,10.6,0,0,0,10.27-2.55,10.29,10.29,0,0,0,14.44,0A10.62,10.62,0,0,0,44.31,46a10.74,10.74,0,0,0,7.5-10.57,10.36,10.36,0,0,0-2.14-6.1A11.51,11.51,0,0,0,51.81,22.64ZM13,16.85H40.66A6.18,6.18,0,0,1,47,22.78a6.33,6.33,0,0,1-2.13,4.77,5,5,0,0,1-1.86,1A5.64,5.64,0,0,1,36.49,26a2.4,2.4,0,0,0-2.07-1.17h-.78A2.41,2.41,0,0,0,31.57,26a5.46,5.46,0,0,1-9.52,0A2.4,2.4,0,0,0,20,24.85H19.2A2.39,2.39,0,0,0,17.14,26a5.63,5.63,0,0,1-6.52,2.55,4.8,4.8,0,0,1-1.85-1A6.35,6.35,0,0,1,6.63,22.7,6.17,6.17,0,0,1,13,16.85ZM43,41.39a5.68,5.68,0,0,1-6.8-3,2.52,2.52,0,0,0-4.36,0,5.5,5.5,0,0,1-10.06,0,2.41,2.41,0,0,0-4.36,0,5.7,5.7,0,0,1-6.8,3,6,6,0,0,1-4-5.87,5.54,5.54,0,0,1,1-3,9,9,0,0,0,1.7.7,10.46,10.46,0,0,0,10.27-2.58,10.21,10.21,0,0,0,14.44,0A10.47,10.47,0,0,0,44.3,33.22a9,9,0,0,0,1.7-.7,5.5,5.5,0,0,1,1,3.07A6,6,0,0,1,43,41.39Z"/></svg>