<svg id="레이어_1" data-name="레이어 1" xmlns="http://www.w3.org/2000/svg" viewBox="0 0 53.62 58.48"><defs><style>.cls-1{fill:#fff;}</style></defs><title>icn_a06</title><path class="cls-1" d="M39.5,38.9H14.12a12.31,12.31,0,0,1-8.73-21,12.21,12.21,0,0,1,8.73-3.64h.42A14.49,14.49,0,0,1,23.59,3.45a14,14,0,0,1,10.17,0,14.5,14.5,0,0,1,9.16,11.31,12.23,12.23,0,0,1,8.39,8.51,12,12,0,0,1,.5,3.32A12.33,12.33,0,0,1,39.5,38.9ZM14.12,19.48a7.11,7.11,0,0,0,0,14.21H39.5a7.11,7.11,0,0,0,7.1-7.11,6.82,6.82,0,0,0-.3-1.91h0a7.14,7.14,0,0,0-6.08-5.16l-2.59-.26.25-2.59a9.06,9.06,0,0,0-6-8.35,8.74,8.74,0,0,0-6.48,0,9.1,9.1,0,0,0-5.94,8.55v2.61Z"/><circle class="cls-1" cx="12.03" cy="44.88" r="3.08"/><circle class="cls-1" cx="6.8" cy="52.8" r="3.08"/><rect class="cls-1" x="13.76" y="47.13" width="13.12" height="4.23" transform="translate(-32.52 42.48) rotate(-60.28)"/><circle class="cls-1" cx="34.92" cy="44.88" r="3.08"/><circle class="cls-1" cx="29.68" cy="52.8" r="3.08"/><rect class="cls-1" x="36.65" y="47.13" width="13.12" height="4.23" transform="translate(-20.98 62.36) rotate(-60.28)"/></svg>