<svg id="레이어_1" data-name="레이어 1" xmlns="http://www.w3.org/2000/svg" viewBox="0 0 55 59"><defs><style>.cls-1{fill:#fff;}</style></defs><title>icn_a04</title><path class="cls-1" d="M39.87,39h-.13l-25-.27A12.13,12.13,0,0,1,6.31,18,11.81,11.81,0,0,1,15,14.51h.42a14.28,14.28,0,0,1,9-10.59,12.57,12.57,0,0,1,5-.9,14.13,14.13,0,0,1,5,1,14.28,14.28,0,0,1,8.9,11.25,12.09,12.09,0,0,1,8.2,8.47h0A12.37,12.37,0,0,1,52,27,12.15,12.15,0,0,1,39.87,39Zm-25-19.43a7,7,0,0,0-.07,14.07l25,.27h.07a7,7,0,0,0,7-7,7.46,7.46,0,0,0-.28-1.9,7.09,7.09,0,0,0-6-5.17l-2.27-.25V17.37a9.2,9.2,0,0,0-9-9.26,10,10,0,0,0-3.22.59,9,9,0,0,0-6,8.41l0,2.54-5.28,0Z"/><rect class="cls-1" x="4.94" y="46.54" width="12.83" height="5.09" transform="translate(-36.89 34.58) rotate(-60.24)"/><rect class="cls-1" x="19.27" y="46.54" width="12.83" height="5.09" transform="translate(-29.67 47.02) rotate(-60.24)"/><rect class="cls-1" x="33.59" y="46.54" width="12.83" height="5.09" transform="translate(-22.46 59.45) rotate(-60.24)"/></svg>