<svg id="레이어_1" data-name="레이어 1" xmlns="http://www.w3.org/2000/svg" viewBox="0 0 53.62 58.48"><defs><style>.cls-1{fill:#fff;}</style></defs><title>icn_a05</title><circle class="cls-1" cx="12.66" cy="44.61" r="3.08"/><circle class="cls-1" cx="27.03" cy="44.61" r="3.08"/><circle class="cls-1" cx="19.84" cy="53.18" r="3.08"/><circle class="cls-1" cx="34.21" cy="53.18" r="3.08"/><circle class="cls-1" cx="41.4" cy="44.61" r="3.08"/><path class="cls-1" d="M39.5,38.62H14.12a12.31,12.31,0,0,1,0-24.62h.42A14.47,14.47,0,0,1,23.59,3.18a14,14,0,0,1,10.18,0,14.49,14.49,0,0,1,9.15,11.31A12.23,12.23,0,0,1,51.31,23a12,12,0,0,1,.5,3.33A12.32,12.32,0,0,1,39.5,38.62ZM14.12,19.21a7.11,7.11,0,0,0,0,14.21H39.5a7.11,7.11,0,0,0,7.1-7.11,6.82,6.82,0,0,0-.3-1.91h0a7.05,7.05,0,0,0-6.08-5.15L37.87,19V16.65A9.11,9.11,0,0,0,31.92,8a8.79,8.79,0,0,0-6.48,0A9.1,9.1,0,0,0,19.5,16.6v2.61Z"/></svg>