<svg id="레이어_1" data-name="레이어 1" xmlns="http://www.w3.org/2000/svg" viewBox="0 0 53.62 58.48"><defs><style>.cls-1{fill:#fff;}</style></defs><title>icn_a12</title><path class="cls-1" d="M51.31,23.26a12.23,12.23,0,0,0-8.39-8.51A14.5,14.5,0,0,0,33.76,3.44a14,14,0,0,0-10.17,0,14.49,14.49,0,0,0-9,10.82h-.42A12.33,12.33,0,0,0,1.81,26.58,12.33,12.33,0,0,0,14.12,38.9H19l1.56-5.21H14.12a7.11,7.11,0,0,1,0-14.21H19.5V16.87a9.1,9.1,0,0,1,5.94-8.55,8.74,8.74,0,0,1,6.48,0,9.06,9.06,0,0,1,6,8.35l-.25,2.59,2.59.26a7.14,7.14,0,0,1,6.08,5.16h0a6.82,6.82,0,0,1,.3,1.91,7.11,7.11,0,0,1-7.1,7.11H33.61L29.36,38.9H39.5A12.33,12.33,0,0,0,51.81,26.58,12,12,0,0,0,51.31,23.26Z"/><rect class="cls-1" x="4.94" y="46.54" width="12.83" height="5.09" transform="translate(-36.89 34.58) rotate(-60.24)"/><rect class="cls-1" x="19.27" y="46.54" width="12.83" height="5.09" transform="translate(-29.67 47.02) rotate(-60.24)"/><rect class="cls-1" x="33.59" y="46.54" width="12.83" height="5.09" transform="translate(-22.46 59.45) rotate(-60.24)"/><polygon class="cls-1" points="35.66 16.63 24.57 16.63 19.77 31.95 24.66 31.95 24.14 33.69 22.58 38.9 20.96 44.29 25.36 38.9 29.61 33.69 34.98 27.13 30.17 27.13 35.66 16.63"/></svg>