<svg id="레이어_1" data-name="레이어 1" xmlns="http://www.w3.org/2000/svg" viewBox="0 0 53.62 58.48"><defs><style>.cls-1{fill:#fff;}</style></defs><title>icn_a02</title><rect class="cls-1" x="22.3" y="5.09" width="5.38" height="7.46"/><rect class="cls-1" x="0.76" y="26.62" width="7.46" height="5.38"/><rect class="cls-1" x="35.75" y="12.13" width="7.46" height="5.38" transform="translate(1.08 32.25) rotate(-44.99)"/><rect class="cls-1" x="6.76" y="41.12" width="7.46" height="5.38" transform="translate(-27.91 20.25) rotate(-45)"/><rect class="cls-1" x="7.8" y="11.09" width="5.38" height="7.46" transform="translate(-7.41 11.76) rotate(-45)"/><path class="cls-1" d="M46.91,33.22A10.84,10.84,0,0,0,36.3,24.55a9.73,9.73,0,0,0-1.07.06A11.4,11.4,0,1,0,17.71,38.2a9.37,9.37,0,0,0,8.54,13.27H43.76a9.4,9.4,0,0,0,3.15-18.25Zm-25.52.83-.15.08a6,6,0,1,1,8.92-7.64h0l-.05,0a9.66,9.66,0,0,0-.87.68l-.26.24q-.32.29-.6.6l-.23.25a9,9,0,0,0-.72.91l0,0c-.21.31-.4.63-.58,1-.06.1-.11.21-.16.31s-.25.51-.36.77-.09.21-.13.32a10.69,10.69,0,0,0-.36,1.09h0c-.37,0-.73.07-1.09.12l-.3.06a8.52,8.52,0,0,0-.84.2l-.23.07a9.4,9.4,0,0,0-1,.39l-.21.1C21.89,33.76,21.64,33.9,21.39,34.05Zm22.37,12H26.25a4,4,0,0,1-2.84-6.84c.1-.1.22-.18.34-.28a2.88,2.88,0,0,1,.27-.22l.15-.08a3.88,3.88,0,0,1,2.08-.6h4.61V35.38a5.26,5.26,0,0,1,.25-1.64,5.4,5.4,0,0,1,3.27-3.43h0a5.37,5.37,0,0,1,1.92-.38,5.46,5.46,0,0,1,5.45,5.38v2.54l2.43.24a4,4,0,0,1-.41,8Z"/></svg>