<svg id="레이어_1" data-name="레이어 1" xmlns="http://www.w3.org/2000/svg" viewBox="0 0 53.62 58.48"><defs><style>.cls-1{fill:#fff;}</style></defs><title>icn_a10</title><circle class="cls-1" cx="12.03" cy="44.88" r="3.08"/><circle class="cls-1" cx="6.8" cy="52.8" r="3.08"/><rect class="cls-1" x="13.76" y="47.13" width="13.12" height="4.23" transform="translate(-32.52 42.48) rotate(-60.28)"/><circle class="cls-1" cx="34.92" cy="44.88" r="3.08"/><circle class="cls-1" cx="29.68" cy="52.8" r="3.08"/><rect class="cls-1" x="36.65" y="47.13" width="13.12" height="4.23" transform="translate(-20.98 62.36) rotate(-60.28)"/><path class="cls-1" d="M51.81,15.24A11,11,0,0,0,40.66,4.63H13A11,11,0,0,0,1.81,15.38,11.29,11.29,0,0,0,4,22,10.73,10.73,0,0,0,9.32,38.63a10.57,10.57,0,0,0,10.27-2.55,10.26,10.26,0,0,0,14.44,0,10.59,10.59,0,0,0,10.28,2.55,10.74,10.74,0,0,0,7.5-10.57A10.39,10.39,0,0,0,49.67,22,11.51,11.51,0,0,0,51.81,15.24ZM13,9.45H40.66A6.18,6.18,0,0,1,47,15.38a6.33,6.33,0,0,1-2.13,4.77,5,5,0,0,1-1.86,1,5.63,5.63,0,0,1-6.51-2.56,2.42,2.42,0,0,0-2.07-1.17h-.78a2.43,2.43,0,0,0-2.07,1.17,5.46,5.46,0,0,1-9.52,0A2.42,2.42,0,0,0,20,17.45H19.2a2.41,2.41,0,0,0-2.06,1.17,5.64,5.64,0,0,1-6.52,2.56,5,5,0,0,1-1.85-1A6.35,6.35,0,0,1,6.63,15.3,6.17,6.17,0,0,1,13,9.45ZM43,34a5.68,5.68,0,0,1-6.8-3,2.51,2.51,0,0,0-4.36,0,5.51,5.51,0,0,1-10.06,0,2.41,2.41,0,0,0-4.36,0,5.68,5.68,0,0,1-6.8,3,6,6,0,0,1-4-5.87,5.48,5.48,0,0,1,1-3,9.61,9.61,0,0,0,1.7.69,10.46,10.46,0,0,0,10.27-2.58,10.21,10.21,0,0,0,14.44,0A10.47,10.47,0,0,0,44.3,25.82a9.61,9.61,0,0,0,1.7-.69,5.45,5.45,0,0,1,1,3.07A5.94,5.94,0,0,1,43,34Z"/></svg>