<svg xmlns="http://www.w3.org/2000/svg" xmlns:xlink="http://www.w3.org/1999/xlink" viewBox="0 0 1467 200"><defs><style>.cls-1{fill:url(#무제_그라디언트_101);}</style><linearGradient id="무제_그라디언트_101" x1="733.5" y1="30.14" x2="733.5" y2="163.67" gradientUnits="userSpaceOnUse"><stop offset="0" stop-color="#fff" stop-opacity="0"/><stop offset="1" stop-color="#fff" stop-opacity="0.3"/></linearGradient></defs><title>cloud3</title><g id="레이어_2" data-name="레이어 2"><path class="cls-1" d="M1367,0a100,100,0,0,0-90.5,57.42,100,100,0,0,0-181,0,100,100,0,0,0-181,0,100,100,0,0,0-181,0,100,100,0,0,0-181,0,100,100,0,0,0-181,0,100,100,0,0,0-181,0,100,100,0,1,0,0,85.16,100,100,0,0,0,181,0,100,100,0,0,0,181,0,100,100,0,0,0,181,0,100,100,0,0,0,181,0,100,100,0,0,0,181,0,100,100,0,0,0,181,0A100,100,0,1,0,1367,0Z"/></g></svg>