<svg xmlns="http://www.w3.org/2000/svg" xmlns:xlink="http://www.w3.org/1999/xlink" viewBox="0 0 687 330.14"><defs><style>.cls-1{fill:url(#무제_그라디언트_44);}.cls-2{fill:url(#무제_그라디언트_44-2);}.cls-3{fill:url(#무제_그라디언트_44-3);}</style><linearGradient id="무제_그라디언트_44" x1="250.75" y1="129.58" x2="250.75" y2="32.9" gradientUnits="userSpaceOnUse"><stop offset="0" stop-color="#fff" stop-opacity="0"/><stop offset="1" stop-color="#fff" stop-opacity="0.5"/></linearGradient><linearGradient id="무제_그라디언트_44-2" x1="335.64" y1="205.04" x2="335.64" y2="108.36" xlink:href="#무제_그라디언트_44"/><linearGradient id="무제_그라디언트_44-3" x1="436.25" y1="282.07" x2="436.25" y2="185.39" xlink:href="#무제_그라디언트_44"/></defs><title>a03</title><g id="레이어_2" data-name="레이어 2"><path class="cls-1" d="M412.67,0a88.82,88.82,0,0,0-81,52.3,88.82,88.82,0,0,0-161.93,0,88.83,88.83,0,1,0,0,73,88.81,88.81,0,0,0,161.93,0A88.82,88.82,0,1,0,412.67,0Z"/><path class="cls-2" d="M497.56,75.46a88.82,88.82,0,0,0-81,52.3,88.81,88.81,0,0,0-161.92,0,88.83,88.83,0,1,0,0,73,88.81,88.81,0,0,0,161.92,0,88.82,88.82,0,1,0,81-125.34Z"/><path class="cls-3" d="M598.18,152.49a88.81,88.81,0,0,0-81,52.3,88.82,88.82,0,0,0-161.93,0,88.83,88.83,0,1,0,0,73,88.82,88.82,0,0,0,161.93,0,88.82,88.82,0,1,0,81-125.35Z"/></g></svg>