<svg xmlns="http://www.w3.org/2000/svg" viewBox="0 0 19.09 1008.09"><defs><style>.cls-1{fill:none;stroke:#fff;stroke-miterlimit:10;stroke-dasharray:50 50;}</style></defs><title>snow</title><g id="레이어_2" data-name="레이어 2"><line class="cls-1" x1="2.8" y1="2.8" x2="16.3" y2="16.3"/><line class="cls-1" x1="16.3" y1="2.8" x2="2.8" y2="16.3"/><line class="cls-1" x1="9.55" y1="19.09" x2="9.55"/><line class="cls-1" x1="19.09" y1="9.55" y2="9.55"/><line class="cls-1" x1="2.8" y1="92.71" x2="16.3" y2="106.21"/><line class="cls-1" x1="16.3" y1="92.71" x2="2.8" y2="106.21"/><line class="cls-1" x1="9.55" y1="109" x2="9.55" y2="89.91"/><line class="cls-1" x1="19.09" y1="99.46" y2="99.46"/><line class="cls-1" x1="2.8" y1="182.61" x2="16.3" y2="196.11"/><line class="cls-1" x1="16.3" y1="182.61" x2="2.8" y2="196.11"/><line class="cls-1" x1="9.55" y1="198.91" x2="9.55" y2="179.82"/><line class="cls-1" x1="19.09" y1="189.36" y2="189.36"/><line class="cls-1" x1="2.8" y1="272.52" x2="16.3" y2="286.02"/><line class="cls-1" x1="16.3" y1="272.52" x2="2.8" y2="286.02"/><line class="cls-1" x1="9.55" y1="288.82" x2="9.55" y2="269.73"/><line class="cls-1" x1="19.09" y1="279.27" y2="279.27"/><line class="cls-1" x1="2.8" y1="362.43" x2="16.3" y2="375.93"/><line class="cls-1" x1="16.3" y1="362.43" x2="2.8" y2="375.93"/><line class="cls-1" x1="9.55" y1="378.73" x2="9.55" y2="359.64"/><line class="cls-1" x1="19.09" y1="369.18" y2="369.18"/><line class="cls-1" x1="2.8" y1="452.34" x2="16.3" y2="465.84"/><line class="cls-1" x1="16.3" y1="452.34" x2="2.8" y2="465.84"/><line class="cls-1" x1="9.55" y1="468.64" x2="9.55" y2="449.55"/><line class="cls-1" x1="19.09" y1="459.09" y2="459.09"/><line class="cls-1" x1="2.8" y1="542.25" x2="16.3" y2="555.75"/><line class="cls-1" x1="16.3" y1="542.25" x2="2.8" y2="555.75"/><line class="cls-1" x1="9.55" y1="558.55" x2="9.55" y2="539.45"/><line class="cls-1" x1="19.09" y1="549" y2="549"/><line class="cls-1" x1="2.8" y1="632.16" x2="16.3" y2="645.66"/><line class="cls-1" x1="16.3" y1="632.16" x2="2.8" y2="645.66"/><line class="cls-1" x1="9.55" y1="648.46" x2="9.55" y2="629.36"/><line class="cls-1" x1="19.09" y1="638.91" y2="638.91"/><line class="cls-1" x1="2.8" y1="722.07" x2="16.3" y2="735.57"/><line class="cls-1" x1="16.3" y1="722.07" x2="2.8" y2="735.57"/><line class="cls-1" x1="9.55" y1="738.36" x2="9.55" y2="719.27"/><line class="cls-1" x1="19.09" y1="728.82" y2="728.82"/><line class="cls-1" x1="2.8" y1="811.98" x2="16.3" y2="825.48"/><line class="cls-1" x1="16.3" y1="811.98" x2="2.8" y2="825.48"/><line class="cls-1" x1="9.55" y1="828.27" x2="9.55" y2="809.18"/><line class="cls-1" x1="19.09" y1="818.73" y2="818.73"/><line class="cls-1" x1="2.8" y1="901.89" x2="16.3" y2="915.39"/><line class="cls-1" x1="16.3" y1="901.89" x2="2.8" y2="915.39"/><line class="cls-1" x1="9.55" y1="918.18" x2="9.55" y2="899.09"/><line class="cls-1" x1="19.09" y1="908.64" y2="908.64"/><line class="cls-1" x1="2.8" y1="991.8" x2="16.3" y2="1005.3"/><line class="cls-1" x1="16.3" y1="991.8" x2="2.8" y2="1005.3"/><line class="cls-1" x1="9.55" y1="1008.09" x2="9.55" y2="989"/><line class="cls-1" x1="19.09" y1="998.55" y2="998.55"/></g></svg>